<svg xmlns="http://www.w3.org/2000/svg" width="319.03" height="53.3" viewBox="0 0 319.03 53.3"><title>Google Drive logo - Brandlogos.net</title><path d="M264.33,392.66l2.53,8.72,6.62,7.13a6,6,0,0,0,2.19-2.2l6.16-10.66a6,6,0,0,0,.8-3l-9.45-1.83Z" transform="translate(-224.49 -357.35)" style="fill:#ea4335"/><path d="M262.71,358.15a6,6,0,0,0-3-.8H247.41a6.08,6.08,0,0,0-3,.8l2.65,8.93,6.47,6.87,0,0,6.52-7Z" transform="translate(-224.49 -357.35)" style="fill:#188038"/><path d="M242.79,392.66l-9.44-2.16-8.87,2.16a6,6,0,0,0,.8,3l6.16,10.66a6,6,0,0,0,2.19,2.2l6.52-6.72Z" transform="translate(-224.49 -357.35)" style="fill:#1967d2"/><path d="M273.37,375l-8.46-14.66a6,6,0,0,0-2.19-2.2L253.56,374l10.77,18.65h18.3a6,6,0,0,0-.8-3Z" transform="translate(-224.49 -357.35)" style="fill:#fbbc04"/><path d="M264.33,392.66H242.79l-9.15,15.85a6,6,0,0,0,3,.8h33.84a6,6,0,0,0,3-.8Z" transform="translate(-224.49 -357.35)" style="fill:#4285f4"/><path d="M253.56,374l-9.15-15.85a6,6,0,0,0-2.19,2.19l-16.93,29.33a6,6,0,0,0-.8,3h18.3Z" transform="translate(-224.49 -357.35)" style="fill:#34a853"/><path d="M423.56,381.69a4.55,4.55,0,0,1,4.36,2.53l-10.4,4.3C417.52,383.69,420.94,381.69,423.56,381.69Zm.36,14.16a5.86,5.86,0,0,1-5.58-3.49L433.72,386l-.51-1.31c-1-2.57-3.88-7.33-9.84-7.33s-10.85,4.65-10.85,11.51a11.25,11.25,0,0,0,11.41,11.51,11.48,11.48,0,0,0,9.59-5.09l-3.92-2.61a6.59,6.59,0,0,1-5.66,3.17Zm-20.32-30.26h5v34.8h-5ZM364,395.85a7,7,0,1,1,6.5-7A6.65,6.65,0,0,1,364,395.85Zm0-18.48a11.51,11.51,0,1,0,11.55,11.51A11.34,11.34,0,0,0,364,377.38ZM389,395.85c-3.49,0-6.14-3-6.14-7s2.65-7,6.14-7,6.14,3,6.14,7S392.48,395.85,389,395.85Zm5.8-15.9h-.18a8,8,0,0,0-6.06-2.57c-5.74,0-10.75,5-10.75,11.51s5,11.51,10.75,11.51a7.86,7.86,0,0,0,6.06-2.61h.18v1.6c0,4.4-2.36,6.75-6.14,6.75a6.38,6.38,0,0,1-5.8-4.1l-4.4,1.82a11,11,0,0,0,10.2,6.79c5.92,0,10.93-3.49,10.93-12V378h-4.79Zm-56.6,15.9a7,7,0,1,1,6.5-7,6.65,6.65,0,0,1-6.5,7Zm0-18.48a11.51,11.51,0,1,0,11.55,11.51,11.34,11.34,0,0,0-11.55-11.51Zm-31.21,4v4.87h11.64a10.33,10.33,0,0,1-2.65,6.14,11.92,11.92,0,0,1-9,3.56,13,13,0,0,1,0-25.9,12.38,12.38,0,0,1,8.77,3.49l3.43-3.43a16.82,16.82,0,0,0-12.2-5,17.83,17.83,0,1,0,0,35.65,16.34,16.34,0,0,0,12.44-5c3.21-3.21,4.22-7.74,4.22-11.39a15.65,15.65,0,0,0-.26-3Z" transform="translate(-224.49 -357.35)" style="fill:#5f6368"/><path d="M448.15,399.63V368.85h9.41q7.05,0,11.33,4.26a16.66,16.66,0,0,1,0,22.29q-4.28,4.23-11.33,4.23Zm4-27v23.21h5.46q5.37,0,8.47-3.07t3.09-8.53q0-5.42-3.09-8.51t-8.47-3.09Z" transform="translate(-224.49 -357.35)" style="fill:#5f6368"/><path d="M480.75,399.63h-4V378.57h3.78V382h.17a5.71,5.71,0,0,1,2.47-2.86,6.86,6.86,0,0,1,3.68-1.18,7.41,7.41,0,0,1,2.92.52l-1.2,3.83a6.56,6.56,0,0,0-2.32-.3,5.12,5.12,0,0,0-3.89,1.81,6,6,0,0,0-1.65,4.21Z" transform="translate(-224.49 -357.35)" style="fill:#5f6368"/><path d="M498,371.3a2.79,2.79,0,1,1-.82-2A2.69,2.69,0,0,1,498,371.3Zm-.82,7.27v21.06h-4V378.57Z" transform="translate(-224.49 -357.35)" style="fill:#5f6368"/><path d="M513.06,399.63h-4l-8.51-21.06h4.3l6.19,16.34h.09l6.28-16.34h4.21Z" transform="translate(-224.49 -357.35)" style="fill:#5f6368"/><path d="M533.54,400.32a10.07,10.07,0,0,1-7.65-3.18,11.23,11.23,0,0,1-3-8,11.44,11.44,0,0,1,2.92-8,10.51,10.51,0,0,1,14.94-.17q2.77,3,2.77,8.49l0,.43H526.92a6.86,6.86,0,0,0,2.06,5,6.6,6.6,0,0,0,4.73,1.89q3.78,0,5.93-3.78l3.52,1.72a10.5,10.5,0,0,1-3.93,4.17A10.88,10.88,0,0,1,533.54,400.32Zm-6.32-13.76H539.3a5.25,5.25,0,0,0-1.78-3.63,6.25,6.25,0,0,0-4.32-1.44,5.73,5.73,0,0,0-3.85,1.38A6.57,6.57,0,0,0,527.22,386.56Z" transform="translate(-224.49 -357.35)" style="fill:#5f6368"/></svg>